<svg width="24" height="24" viewBox="0 0 24 24" fill="none" xmlns="http://www.w3.org/2000/svg">
<g clip-path="url(#clip0_2408_88)">
<path d="M10 19H19C19.3186 18.9836 19.6287 18.8912 19.9043 18.7305C20.1799 18.5698 20.4131 18.3456 20.5843 18.0764C20.7556 17.8073 20.86 17.501 20.8888 17.1833C20.9177 16.8656 20.8701 16.5456 20.75 16.25L20.2 15.25M12 17L10 19L12 21V17Z" stroke="white" stroke-width="2" stroke-linecap="round" stroke-linejoin="round"/>
<path d="M7.80386 8.26794L3.30386 16.0622C3.15878 16.3463 3.08378 16.661 3.08511 16.98C3.08645 17.2991 3.16409 17.6131 3.31154 17.8961C3.45899 18.179 3.67199 18.4225 3.93273 18.6063C4.19348 18.7901 4.49442 18.9089 4.81043 18.9527L5.95145 18.9764M8.53591 11L7.80386 8.26794L5.07181 9L8.53591 11Z" stroke="white" stroke-width="2" stroke-linecap="round" stroke-linejoin="round"/>
<path d="M18.1961 11.7321L13.6961 3.93783C13.5226 3.67012 13.2876 3.44781 13.0106 3.28945C12.7337 3.1311 12.4228 3.04129 12.1041 3.02754C11.7854 3.01378 11.468 3.07648 11.1784 3.21038C10.8889 3.34429 10.6355 3.54552 10.4396 3.79728L9.84855 4.7736M15.4641 11L18.1961 11.7321L18.9282 9L15.4641 11Z" stroke="white" stroke-width="2" stroke-linecap="round" stroke-linejoin="round"/>
</g>
<defs>
<clipPath id="clip0_2408_88">
<rect width="24" height="24" fill="white"/>
</clipPath>
</defs>
</svg>
