<svg width="24" height="24" viewBox="0 0 24 24" fill="none" xmlns="http://www.w3.org/2000/svg">
<path d="M12 2.25C6.624 2.25 2.25 6.624 2.25 12C2.25 17.376 6.624 21.75 12 21.75C17.376 21.75 21.75 17.376 21.75 12C21.75 6.624 17.376 2.25 12 2.25ZM11.25 3.78809V11.6382L5.10059 16.5117C4.24901 15.2139 3.75 13.6647 3.75 12C3.75 7.7044 7.05183 4.16878 11.25 3.78809ZM12.75 3.78809C16.9482 4.16878 20.25 7.7044 20.25 12C20.25 13.6654 19.7502 15.215 18.8979 16.5132L12.75 11.6382V3.78809ZM11.25 13.5527V20.2119C9.20588 20.0265 7.37926 19.0909 6.03809 17.6851L11.25 13.5527ZM12.75 13.5527L17.9619 17.6851C16.6207 19.0909 14.7941 20.0265 12.75 20.2119V13.5527Z" fill="white"/>
</svg>
