<svg width="24" height="24" viewBox="0 0 24 24" fill="none" xmlns="http://www.w3.org/2000/svg">
<path d="M14.4844 5.22658C14.0684 5.22951 13.6553 5.25002 13.2188 5.36721C12.7822 5.4844 12.3457 5.6719 11.8828 5.97658C11.3086 5.63967 10.752 5.36135 10.2188 5.2969C9.55664 5.21486 8.94141 5.25881 8.22656 5.27346C7.37988 5.29104 6.82617 5.72463 5.92969 6.07033C5.0332 6.41604 3.87891 6.75002 2.25 6.75002H1.5V13.9688L1.92188 14.1797L3.30469 14.8594L8.22656 20.3438L8.25 20.3672C8.8125 20.9238 9.57129 21.0615 10.2422 21.0235C10.9131 20.9854 11.543 20.7891 12.0469 20.4844C13.1543 19.8164 16.1719 17.7188 16.1719 17.7188L16.2422 17.6719L16.2891 17.625C16.6465 17.2705 16.8252 16.8369 16.9453 16.3828L19.8281 14.9297L21.9844 14.2031L22.5 14.0391V6.75002H21.75C20.124 6.75002 18.9668 6.39846 18.0703 6.0469C17.1738 5.69533 16.6289 5.2676 15.7734 5.25002C15.3164 5.24123 14.9004 5.22365 14.4844 5.22658ZM14.5078 6.72658C14.8447 6.72365 15.2344 6.74123 15.7266 6.75002C15.8057 6.75295 16.5264 7.06057 17.5312 7.45315C18.3809 7.78713 19.5615 8.08303 21 8.17971V12.961L19.2656 13.5469H19.2188L19.1719 13.5703L16.8984 14.7188C16.7725 14.376 16.5996 14.0596 16.3359 13.7813L16.2891 13.711L13.1016 9.7969L12.6328 9.21096L12.0469 9.67971L10.0312 11.3203C9.35449 11.7891 8.80664 11.6543 8.25 11.3906C8.08887 11.3145 8.09766 11.291 7.96875 11.2031L11.3906 8.36721L11.4375 8.32033C12.4541 7.31252 13.0781 6.96389 13.6172 6.82033C13.8867 6.74709 14.1709 6.72951 14.5078 6.72658ZM9.28125 6.75002C9.56836 6.74416 9.80859 6.74709 10.0312 6.77346C10.2275 6.7969 10.4502 6.96389 10.6406 7.03127C10.5645 7.10158 10.5088 7.1426 10.4297 7.21877C10.4121 7.23635 10.4004 7.24807 10.3828 7.26565L6.28125 10.6641L5.64844 11.1797L6.21094 11.7656C6.21094 11.7656 6.75293 12.3516 7.59375 12.75C8.43457 13.1485 9.73242 13.374 10.8984 12.5625L10.9453 12.5156L12.3984 11.3203L15.1641 14.7188L15.1875 14.7656L15.2109 14.7891C15.7061 15.2783 15.6943 16.0488 15.2109 16.5469C15.2051 16.5528 15.2168 16.5645 15.2109 16.5703C15.2051 16.5733 15.1055 16.6319 15.0938 16.6406L14.1094 15.3047L12.8906 16.1953L13.8516 17.4844C13.4619 17.7481 13.2861 17.8858 12.8672 18.1641L11.8594 16.8047L10.6406 17.6953L11.6016 18.9844C11.5166 19.0371 11.3408 19.1543 11.2734 19.1953C11.0361 19.3389 10.5791 19.5 10.1719 19.5235C9.78809 19.544 9.49512 19.4561 9.35156 19.336L9.32812 19.3125L4.3125 13.7578L4.21875 13.6406L3 13.0313V8.17971C4.43262 8.08596 5.62207 7.80178 6.46875 7.47658C7.4707 7.09279 8.18555 6.77639 8.27344 6.77346C8.65723 6.76467 8.99414 6.75588 9.28125 6.75002Z" fill="white"/>
</svg>
