<svg width="24" height="24" viewBox="0 0 24 24" fill="none" xmlns="http://www.w3.org/2000/svg">
<g clip-path="url(#clip0_2407_11)">
<path d="M8.4 5.39999C8.04 5.39999 7.8 5.75999 7.8 5.99999V8.99999H6.6V5.99999C6.6 5.63999 6.36 5.39999 6 5.39999C5.64 5.39999 5.4 5.75999 5.4 5.99999V8.99999H4.2V5.99999C4.2 5.63999 3.96 5.39999 3.6 5.39999C3.24 5.39999 3 5.75999 3 5.99999V9.95999C3 11.04 3.84 11.88 4.8 12V20.4C4.8 21.12 5.28 21.6 6 21.6C6.72 21.6 7.2 21.12 7.2 20.4V12C8.16 11.88 9 11.04 9 9.95999V5.99999C9 5.75999 8.76 5.39999 8.4 5.39999ZM10.8 5.99999V13.2H12V20.4C12 21.12 12.48 21.6 13.2 21.6C13.92 21.6 14.4 21.12 14.4 20.4V2.39999C12.36 2.39999 10.8 3.95999 10.8 5.99999ZM19.2 4.79999C17.52 4.79999 16.2 6.59999 16.2 8.75999C16.08 10.2 16.8 11.52 18 12.36V20.4C18 21.12 18.48 21.6 19.2 21.6C19.92 21.6 20.4 21.12 20.4 20.4V12.36C21.6 11.52 22.32 10.2 22.2 8.75999C22.2 6.59999 20.88 4.79999 19.2 4.79999Z" fill="white"/>
</g>
<defs>
<clipPath id="clip0_2407_11">
<rect width="24" height="24" fill="white"/>
</clipPath>
</defs>
</svg>
