<svg width="24" height="24" viewBox="0 0 24 24" fill="none" xmlns="http://www.w3.org/2000/svg">
<g clip-path="url(#clip0_2407_17)">
<path d="M12 12L3.048 8.42399L3.6 21.6H1.2L1.776 7.90799L0 7.19999L12 2.39999L24 7.19999L12 12ZM12 5.99999C11.34 5.99999 10.8 6.26399 10.8 6.59999C10.8 6.93599 11.34 7.19999 12 7.19999C12.66 7.19999 13.2 6.93599 13.2 6.59999C13.2 6.26399 12.66 5.99999 12 5.99999ZM12 13.2L18.684 10.524C19.536 11.652 20.124 13.008 20.316 14.484C19.956 14.436 19.584 14.4 19.2 14.4C16.14 14.4 13.464 16.044 12 18.492C10.536 16.044 7.86 14.4 4.8 14.4C4.416 14.4 4.044 14.436 3.684 14.484C3.876 13.008 4.464 11.652 5.316 10.524L12 13.2Z" fill="white"/>
</g>
<defs>
<clipPath id="clip0_2407_17">
<rect width="24" height="24" fill="white"/>
</clipPath>
</defs>
</svg>
